<svg width="390" height="69" viewBox="0 0 390 69" fill="none" xmlns="http://www.w3.org/2000/svg">
<rect width="430" height="69" transform="translate(-20)" fill="#FFFDF6"/>
<path d="M51 37H71" stroke="#2F2E2E" stroke-width="1.5" stroke-miterlimit="10" stroke-linecap="round" stroke-linejoin="round"/>
<path d="M51.95 37L52 24.97C52 24.36 52.29 23.78 52.77 23.4L59.77 17.95C60.49 17.39 61.5 17.39 62.23 17.95L69.23 23.39C69.72 23.77 70 24.35 70 24.97V37" stroke="#2F2E2E" stroke-width="1.5" stroke-miterlimit="10" stroke-linejoin="round"/>
<path d="M64.5 26H57.5C56.67 26 56 26.67 56 27.5V37H66V27.5C66 26.67 65.33 26 64.5 26Z" stroke="#2F2E2E" stroke-width="1.5" stroke-miterlimit="10" stroke-linecap="round" stroke-linejoin="round"/>
<path d="M59 31.25V32.75" stroke="#2F2E2E" stroke-width="1.5" stroke-miterlimit="10" stroke-linecap="round" stroke-linejoin="round"/>
<path d="M59.5 22.5H62.5" stroke="#2F2E2E" stroke-width="1.5" stroke-miterlimit="10" stroke-linecap="round" stroke-linejoin="round"/>
<path d="M150.5 36C155.747 36 160 31.7467 160 26.5C160 21.2533 155.747 17 150.5 17C145.253 17 141 21.2533 141 26.5C141 31.7467 145.253 36 150.5 36Z" stroke="#2F2E2E" stroke-width="1.5" stroke-linecap="round" stroke-linejoin="round"/>
<path d="M161 37L159 35" stroke="#2F2E2E" stroke-width="1.5" stroke-linecap="round" stroke-linejoin="round"/>
<path d="M246.5 29.5834H247.542C248.687 29.5834 249.625 28.6459 249.625 27.5V17.0834H240.25C238.687 17.0834 237.323 17.9479 236.615 19.2188" stroke="#2F2E2E" stroke-width="1.5" stroke-linecap="round" stroke-linejoin="round"/>
<path d="M236.083 32.7084C236.083 34.4375 237.479 35.8334 239.208 35.8334H240.25C240.25 34.6875 241.187 33.75 242.333 33.75C243.479 33.75 244.417 34.6875 244.417 35.8334H248.583C248.583 34.6875 249.521 33.75 250.667 33.75C251.812 33.75 252.75 34.6875 252.75 35.8334H253.792C255.521 35.8334 256.917 34.4375 256.917 32.7084V29.5834H253.792C253.219 29.5834 252.75 29.1146 252.75 28.5417V25.4167C252.75 24.8438 253.219 24.375 253.792 24.375H255.135L253.354 21.2605C252.979 20.6146 252.292 20.2084 251.542 20.2084H249.625V27.5C249.625 28.6459 248.687 29.5834 247.542 29.5834H246.5" stroke="#2F2E2E" stroke-width="1.5" stroke-linecap="round" stroke-linejoin="round"/>
<path d="M242.333 37.9167C243.484 37.9167 244.417 36.9839 244.417 35.8333C244.417 34.6827 243.484 33.75 242.333 33.75C241.183 33.75 240.25 34.6827 240.25 35.8333C240.25 36.9839 241.183 37.9167 242.333 37.9167Z" stroke="#2F2E2E" stroke-width="1.5" stroke-linecap="round" stroke-linejoin="round"/>
<path d="M250.667 37.9167C251.817 37.9167 252.75 36.9839 252.75 35.8333C252.75 34.6827 251.817 33.75 250.667 33.75C249.516 33.75 248.583 34.6827 248.583 35.8333C248.583 36.9839 249.516 37.9167 250.667 37.9167Z" stroke="#2F2E2E" stroke-width="1.5" stroke-linecap="round" stroke-linejoin="round"/>
<path d="M256.917 27.5V29.5833H253.792C253.219 29.5833 252.75 29.1146 252.75 28.5417V25.4167C252.75 24.8438 253.219 24.375 253.792 24.375H255.135L256.917 27.5Z" stroke="#2F2E2E" stroke-width="1.5" stroke-linecap="round" stroke-linejoin="round"/>
<path d="M236.083 23.3334H242.333" stroke="#2F2E2E" stroke-width="1.5" stroke-linecap="round" stroke-linejoin="round"/>
<path d="M236.083 26.4584H240.25" stroke="#2F2E2E" stroke-width="1.5" stroke-linecap="round" stroke-linejoin="round"/>
<path d="M236.083 29.5834H238.167" stroke="#2F2E2E" stroke-width="1.5" stroke-linecap="round" stroke-linejoin="round"/>
<path d="M350.14 36.62C349.26 36.88 348.22 37 347 37H341C339.78 37 338.74 36.88 337.86 36.62C338.08 34.02 340.75 31.97 344 31.97C347.25 31.97 349.92 34.02 350.14 36.62Z" stroke="#2F2E2E" stroke-width="1.5" stroke-linecap="round" stroke-linejoin="round"/>
<path d="M347 17H341C336 17 334 19 334 24V30C334 33.78 335.14 35.85 337.86 36.62C338.08 34.02 340.75 31.97 344 31.97C347.25 31.97 349.92 34.02 350.14 36.62C352.86 35.85 354 33.78 354 30V24C354 19 352 17 347 17ZM344 29.17C342.02 29.17 340.42 27.56 340.42 25.58C340.42 23.6 342.02 22 344 22C345.98 22 347.58 23.6 347.58 25.58C347.58 27.56 345.98 29.17 344 29.17Z" stroke="#2F2E2E" stroke-width="1.5" stroke-linecap="round" stroke-linejoin="round"/>
<path d="M347.58 25.58C347.58 27.56 345.98 29.17 344 29.17C342.02 29.17 340.42 27.56 340.42 25.58C340.42 23.6 342.02 22 344 22C345.98 22 347.58 23.6 347.58 25.58Z" stroke="#2F2E2E" stroke-width="1.5" stroke-linecap="round" stroke-linejoin="round"/>
<path d="M52.2241 52H50.9404V48.4551H47.3203V52H46.0312V44.1475H47.3203V47.3594H50.9404V44.1475H52.2241V52ZM59.4375 49.0137C59.4375 49.5078 59.373 49.9465 59.2441 50.3296C59.1152 50.7127 58.9272 51.0368 58.6802 51.3018C58.4331 51.5632 58.1359 51.7637 57.7886 51.9033C57.4412 52.0394 57.0492 52.1074 56.6123 52.1074C56.2041 52.1074 55.8299 52.0394 55.4897 51.9033C55.1496 51.7637 54.8542 51.5632 54.6035 51.3018C54.3564 51.0368 54.1649 50.7127 54.0288 50.3296C53.8927 49.9465 53.8247 49.5078 53.8247 49.0137C53.8247 48.3584 53.9375 47.8034 54.1631 47.3486C54.3923 46.8903 54.7181 46.5412 55.1406 46.3013C55.5632 46.0614 56.0662 45.9414 56.6499 45.9414C57.1978 45.9414 57.6812 46.0614 58.1001 46.3013C58.519 46.5412 58.8467 46.8903 59.083 47.3486C59.3193 47.807 59.4375 48.362 59.4375 49.0137ZM55.1245 49.0137C55.1245 49.4469 55.1764 49.8175 55.2803 50.1255C55.3877 50.4334 55.5524 50.6698 55.7744 50.8345C55.9964 50.9956 56.2829 51.0762 56.6338 51.0762C56.9847 51.0762 57.2712 50.9956 57.4932 50.8345C57.7152 50.6698 57.8781 50.4334 57.9819 50.1255C58.0858 49.8175 58.1377 49.4469 58.1377 49.0137C58.1377 48.5804 58.0858 48.2134 57.9819 47.9126C57.8781 47.6082 57.7152 47.3773 57.4932 47.2197C57.2712 47.0586 56.9829 46.978 56.6284 46.978C56.1056 46.978 55.7243 47.1535 55.4844 47.5044C55.2445 47.8553 55.1245 48.3584 55.1245 49.0137ZM67.6069 45.9414C68.2729 45.9414 68.7743 46.1133 69.1108 46.457C69.451 46.8008 69.6211 47.3522 69.6211 48.1113V52H68.3589V48.3369C68.3589 47.8857 68.2712 47.5456 68.0957 47.3164C67.9202 47.0872 67.6535 46.9727 67.2954 46.9727C66.7941 46.9727 66.4325 47.1338 66.2104 47.4561C65.992 47.7747 65.8828 48.2384 65.8828 48.8472V52H64.6206V48.3369C64.6206 48.0361 64.5812 47.7855 64.5024 47.585C64.4272 47.3809 64.3109 47.2287 64.1533 47.1284C63.9958 47.0246 63.797 46.9727 63.5571 46.9727C63.2098 46.9727 62.9323 47.0514 62.7246 47.209C62.5205 47.3665 62.3737 47.5993 62.2842 47.9072C62.1947 48.2116 62.1499 48.5858 62.1499 49.0298V52H60.8877V46.0542H61.8706L62.0479 46.8545H62.1177C62.2394 46.6468 62.3898 46.4767 62.5688 46.3442C62.7515 46.2082 62.9538 46.1079 63.1758 46.0435C63.3978 45.9754 63.6287 45.9414 63.8687 45.9414C64.3127 45.9414 64.6868 46.0202 64.9912 46.1777C65.2956 46.3317 65.5229 46.568 65.6733 46.8867H65.77C65.9562 46.5645 66.2158 46.3263 66.5488 46.1724C66.8818 46.0184 67.2345 45.9414 67.6069 45.9414ZM73.7515 45.9414C74.2814 45.9414 74.7362 46.0506 75.1157 46.269C75.4953 46.4875 75.7871 46.7972 75.9912 47.1982C76.1953 47.5993 76.2974 48.0791 76.2974 48.6377V49.3145H72.3281C72.3424 49.891 72.4964 50.335 72.79 50.6465C73.0872 50.958 73.5026 51.1138 74.0361 51.1138C74.4157 51.1138 74.7559 51.078 75.0566 51.0063C75.361 50.9312 75.6743 50.8219 75.9966 50.6787V51.7046C75.6994 51.8442 75.3968 51.9463 75.0889 52.0107C74.7809 52.0752 74.4121 52.1074 73.9824 52.1074C73.3988 52.1074 72.8849 51.9946 72.4409 51.769C72.0005 51.5399 71.6549 51.1997 71.4043 50.7485C71.1572 50.2974 71.0337 49.737 71.0337 49.0674C71.0337 48.4014 71.1465 47.8356 71.3721 47.3701C71.5977 46.9046 71.9146 46.5501 72.3228 46.3066C72.731 46.0632 73.2072 45.9414 73.7515 45.9414ZM73.7515 46.8921C73.354 46.8921 73.0317 47.021 72.7847 47.2788C72.5412 47.5366 72.3979 47.9144 72.355 48.4121H75.062C75.0584 48.1149 75.0083 47.8517 74.9116 47.6226C74.8185 47.3934 74.6753 47.2144 74.4819 47.0854C74.2922 46.9565 74.0487 46.8921 73.7515 46.8921Z" fill="black"/>
<path d="M138.564 49.8623C138.564 50.3278 138.45 50.7288 138.221 51.0654C137.995 51.402 137.669 51.6598 137.243 51.8389C136.821 52.0179 136.316 52.1074 135.729 52.1074C135.442 52.1074 135.168 52.0913 134.907 52.0591C134.645 52.0269 134.398 51.9803 134.166 51.9194C133.936 51.855 133.727 51.778 133.537 51.6885V50.4746C133.856 50.6143 134.212 50.7414 134.606 50.856C135 50.967 135.401 51.0225 135.809 51.0225C136.142 51.0225 136.418 50.9795 136.636 50.8936C136.858 50.804 137.023 50.6787 137.13 50.5176C137.238 50.3529 137.292 50.1613 137.292 49.9429C137.292 49.7101 137.229 49.5132 137.104 49.3521C136.978 49.1909 136.788 49.0441 136.534 48.9116C136.284 48.7756 135.968 48.6305 135.589 48.4766C135.331 48.3727 135.084 48.2546 134.848 48.1221C134.615 47.9896 134.407 47.8338 134.225 47.6548C134.042 47.4757 133.897 47.2645 133.79 47.021C133.686 46.7739 133.634 46.4839 133.634 46.1509C133.634 45.7069 133.739 45.3273 133.951 45.0122C134.166 44.6971 134.466 44.4554 134.853 44.2871C135.243 44.1188 135.698 44.0347 136.217 44.0347C136.629 44.0347 137.016 44.0776 137.377 44.1636C137.743 44.2495 138.101 44.3713 138.452 44.5288L138.043 45.5654C137.721 45.4329 137.408 45.3273 137.104 45.2485C136.803 45.1698 136.495 45.1304 136.18 45.1304C135.908 45.1304 135.677 45.1715 135.487 45.2539C135.297 45.3363 135.152 45.4526 135.052 45.603C134.955 45.7498 134.907 45.9253 134.907 46.1294C134.907 46.3586 134.962 46.5519 135.073 46.7095C135.188 46.8634 135.363 47.0049 135.6 47.1338C135.84 47.2627 136.147 47.4059 136.523 47.5635C136.957 47.7425 137.324 47.9305 137.625 48.1274C137.929 48.3244 138.162 48.5607 138.323 48.8364C138.484 49.1086 138.564 49.4505 138.564 49.8623ZM142.319 45.9414C142.849 45.9414 143.304 46.0506 143.683 46.269C144.063 46.4875 144.354 46.7972 144.559 47.1982C144.763 47.5993 144.865 48.0791 144.865 48.6377V49.3145H140.896C140.91 49.891 141.064 50.335 141.357 50.6465C141.655 50.958 142.07 51.1138 142.604 51.1138C142.983 51.1138 143.323 51.078 143.624 51.0063C143.928 50.9312 144.242 50.8219 144.564 50.6787V51.7046C144.267 51.8442 143.964 51.9463 143.656 52.0107C143.348 52.0752 142.979 52.1074 142.55 52.1074C141.966 52.1074 141.452 51.9946 141.008 51.769C140.568 51.5399 140.222 51.1997 139.972 50.7485C139.725 50.2974 139.601 49.737 139.601 49.0674C139.601 48.4014 139.714 47.8356 139.939 47.3701C140.165 46.9046 140.482 46.5501 140.89 46.3066C141.298 46.0632 141.775 45.9414 142.319 45.9414ZM142.319 46.8921C141.921 46.8921 141.599 47.021 141.352 47.2788C141.109 47.5366 140.965 47.9144 140.922 48.4121H143.629C143.626 48.1149 143.576 47.8517 143.479 47.6226C143.386 47.3934 143.243 47.2144 143.049 47.0854C142.86 46.9565 142.616 46.8921 142.319 46.8921ZM148.619 45.9414C149.371 45.9414 149.939 46.1079 150.322 46.4409C150.708 46.7739 150.902 47.2931 150.902 47.9985V52H150.005L149.763 51.1567H149.72C149.552 51.3716 149.378 51.5488 149.199 51.6885C149.02 51.8281 148.812 51.932 148.576 52C148.343 52.0716 148.059 52.1074 147.722 52.1074C147.368 52.1074 147.051 52.043 146.771 51.9141C146.492 51.7816 146.272 51.5811 146.111 51.3125C145.95 51.0439 145.869 50.7038 145.869 50.292C145.869 49.6797 146.097 49.2196 146.551 48.9116C147.01 48.6037 147.701 48.4336 148.625 48.4014L149.656 48.3638V48.0522C149.656 47.6405 149.559 47.3468 149.366 47.1714C149.176 46.9959 148.907 46.9082 148.56 46.9082C148.263 46.9082 147.975 46.9512 147.695 47.0371C147.416 47.123 147.144 47.2287 146.879 47.354L146.471 46.4624C146.761 46.3084 147.09 46.1831 147.459 46.0864C147.831 45.9897 148.218 45.9414 148.619 45.9414ZM149.65 49.1587L148.882 49.1855C148.252 49.207 147.81 49.3145 147.556 49.5078C147.301 49.7012 147.174 49.9661 147.174 50.3027C147.174 50.5964 147.262 50.8112 147.438 50.9473C147.613 51.0798 147.844 51.146 148.13 51.146C148.567 51.146 148.929 51.0225 149.215 50.7754C149.505 50.5247 149.65 50.1577 149.65 49.6743V49.1587ZM155.682 45.9414C155.782 45.9414 155.892 45.9468 156.01 45.9575C156.128 45.9683 156.23 45.9826 156.316 46.0005L156.198 47.1821C156.123 47.1606 156.029 47.1445 155.918 47.1338C155.811 47.123 155.714 47.1177 155.628 47.1177C155.403 47.1177 155.188 47.1553 154.984 47.2305C154.78 47.3021 154.599 47.4131 154.441 47.5635C154.284 47.7103 154.16 47.8947 154.071 48.1167C153.981 48.3387 153.937 48.5965 153.937 48.8901V52H152.669V46.0542H153.657L153.829 47.1016H153.888C154.006 46.8903 154.153 46.6969 154.329 46.5215C154.504 46.346 154.705 46.2064 154.93 46.1025C155.159 45.9951 155.41 45.9414 155.682 45.9414ZM159.812 52.1074C159.25 52.1074 158.763 51.9982 158.352 51.7798C157.94 51.5614 157.623 51.2266 157.401 50.7754C157.179 50.3242 157.068 49.7513 157.068 49.0566C157.068 48.3333 157.19 47.7425 157.433 47.2842C157.677 46.8258 158.013 46.4875 158.443 46.269C158.876 46.0506 159.372 45.9414 159.931 45.9414C160.285 45.9414 160.606 45.9772 160.892 46.0488C161.182 46.1169 161.427 46.201 161.628 46.3013L161.252 47.311C161.034 47.2215 160.81 47.1463 160.581 47.0854C160.351 47.0246 160.131 46.9941 159.92 46.9941C159.573 46.9941 159.283 47.0711 159.05 47.2251C158.821 47.3791 158.649 47.6082 158.534 47.9126C158.423 48.217 158.368 48.5947 158.368 49.0459C158.368 49.4827 158.425 49.8516 158.54 50.1523C158.654 50.4495 158.824 50.6751 159.05 50.8291C159.275 50.9795 159.553 51.0547 159.882 51.0547C160.208 51.0547 160.5 51.0153 160.758 50.9365C161.016 50.8577 161.259 50.7557 161.488 50.6304V51.7261C161.263 51.855 161.021 51.9499 160.763 52.0107C160.505 52.0752 160.188 52.1074 159.812 52.1074ZM164.147 43.6426V45.7427C164.147 45.9611 164.14 46.1742 164.125 46.3818C164.115 46.5895 164.102 46.7507 164.088 46.8652H164.158C164.283 46.6576 164.437 46.4875 164.62 46.355C164.802 46.2189 165.006 46.1169 165.232 46.0488C165.461 45.9808 165.705 45.9468 165.962 45.9468C166.417 45.9468 166.804 46.0238 167.123 46.1777C167.441 46.3281 167.685 46.5627 167.853 46.8813C168.025 47.2 168.111 47.6136 168.111 48.1221V52H166.849V48.3584C166.849 47.8965 166.754 47.5509 166.564 47.3218C166.374 47.089 166.081 46.9727 165.683 46.9727C165.3 46.9727 164.996 47.0532 164.77 47.2144C164.548 47.3719 164.389 47.6064 164.292 47.918C164.195 48.2259 164.147 48.6019 164.147 49.0459V52H162.885V43.6426H164.147Z" fill="black"/>
<path d="M237.003 48.063C237.003 48.6681 236.926 49.2196 236.772 49.7173C236.622 50.2114 236.394 50.6375 236.09 50.9956C235.785 51.3501 235.404 51.624 234.946 51.8174C234.487 52.0107 233.95 52.1074 233.334 52.1074C232.708 52.1074 232.164 52.0107 231.702 51.8174C231.243 51.624 230.862 51.3483 230.558 50.9902C230.257 50.6322 230.031 50.2043 229.881 49.7065C229.73 49.2088 229.655 48.6574 229.655 48.0522C229.655 47.243 229.788 46.5376 230.053 45.936C230.321 45.3309 230.728 44.8618 231.272 44.5288C231.82 44.1922 232.511 44.0239 233.345 44.0239C234.162 44.0239 234.84 44.1904 235.381 44.5234C235.922 44.8564 236.326 45.3255 236.595 45.9307C236.867 46.5322 237.003 47.243 237.003 48.063ZM231.009 48.063C231.009 48.6681 231.091 49.1927 231.256 49.6367C231.421 50.0771 231.673 50.4173 232.013 50.6572C232.357 50.8936 232.797 51.0117 233.334 51.0117C233.875 51.0117 234.316 50.8936 234.656 50.6572C234.996 50.4173 235.247 50.0771 235.408 49.6367C235.569 49.1927 235.649 48.6681 235.649 48.063C235.649 47.1427 235.465 46.423 235.096 45.9038C234.731 45.381 234.147 45.1196 233.345 45.1196C232.808 45.1196 232.366 45.2378 232.019 45.4741C231.675 45.7104 231.421 46.0488 231.256 46.4893C231.091 46.9261 231.009 47.4507 231.009 48.063ZM241.574 45.9414C241.674 45.9414 241.783 45.9468 241.901 45.9575C242.02 45.9683 242.122 45.9826 242.208 46.0005L242.089 47.1821C242.014 47.1606 241.921 47.1445 241.81 47.1338C241.703 47.123 241.606 47.1177 241.52 47.1177C241.294 47.1177 241.08 47.1553 240.875 47.2305C240.671 47.3021 240.491 47.4131 240.333 47.5635C240.175 47.7103 240.052 47.8947 239.962 48.1167C239.873 48.3387 239.828 48.5965 239.828 48.8901V52H238.561V46.0542H239.549L239.721 47.1016H239.78C239.898 46.8903 240.045 46.6969 240.22 46.5215C240.396 46.346 240.596 46.2064 240.822 46.1025C241.051 45.9951 241.302 45.9414 241.574 45.9414ZM245.307 52.1074C244.598 52.1074 244.028 51.8496 243.599 51.334C243.173 50.8148 242.959 50.0503 242.959 49.0405C242.959 48.02 243.176 47.2484 243.609 46.7256C244.046 46.2028 244.621 45.9414 245.333 45.9414C245.634 45.9414 245.897 45.9826 246.123 46.0649C246.349 46.1437 246.542 46.2511 246.703 46.3872C246.868 46.5233 247.007 46.6755 247.122 46.8438H247.181C247.163 46.7327 247.142 46.5734 247.117 46.3657C247.095 46.1545 247.084 45.9593 247.084 45.7803V43.6426H248.352V52H247.364L247.138 51.189H247.084C246.977 51.3608 246.841 51.5166 246.676 51.6562C246.515 51.7923 246.322 51.9015 246.096 51.9839C245.874 52.0662 245.611 52.1074 245.307 52.1074ZM245.661 51.0815C246.202 51.0815 246.583 50.9258 246.805 50.6143C247.027 50.3027 247.142 49.8354 247.149 49.2124V49.0459C247.149 48.3799 247.042 47.8696 246.827 47.5151C246.612 47.1571 246.22 46.978 245.65 46.978C245.196 46.978 244.848 47.1624 244.608 47.5312C244.372 47.8965 244.254 48.4067 244.254 49.062C244.254 49.7173 244.372 50.2186 244.608 50.5659C244.848 50.9097 245.199 51.0815 245.661 51.0815ZM252.531 45.9414C253.061 45.9414 253.515 46.0506 253.895 46.269C254.275 46.4875 254.566 46.7972 254.771 47.1982C254.975 47.5993 255.077 48.0791 255.077 48.6377V49.3145H251.107C251.122 49.891 251.276 50.335 251.569 50.6465C251.867 50.958 252.282 51.1138 252.815 51.1138C253.195 51.1138 253.535 51.078 253.836 51.0063C254.14 50.9312 254.454 50.8219 254.776 50.6787V51.7046C254.479 51.8442 254.176 51.9463 253.868 52.0107C253.56 52.0752 253.191 52.1074 252.762 52.1074C252.178 52.1074 251.664 51.9946 251.22 51.769C250.78 51.5399 250.434 51.1997 250.184 50.7485C249.937 50.2974 249.813 49.737 249.813 49.0674C249.813 48.4014 249.926 47.8356 250.151 47.3701C250.377 46.9046 250.694 46.5501 251.102 46.3066C251.51 46.0632 251.986 45.9414 252.531 45.9414ZM252.531 46.8921C252.133 46.8921 251.811 47.021 251.564 47.2788C251.32 47.5366 251.177 47.9144 251.134 48.4121H253.841C253.838 48.1149 253.788 47.8517 253.691 47.6226C253.598 47.3934 253.455 47.2144 253.261 47.0854C253.071 46.9565 252.828 46.8921 252.531 46.8921ZM259.513 45.9414C259.613 45.9414 259.723 45.9468 259.841 45.9575C259.959 45.9683 260.061 45.9826 260.147 46.0005L260.029 47.1821C259.954 47.1606 259.861 47.1445 259.75 47.1338C259.642 47.123 259.545 47.1177 259.459 47.1177C259.234 47.1177 259.019 47.1553 258.815 47.2305C258.611 47.3021 258.43 47.4131 258.272 47.5635C258.115 47.7103 257.991 47.8947 257.902 48.1167C257.812 48.3387 257.768 48.5965 257.768 48.8901V52H256.5V46.0542H257.488L257.66 47.1016H257.719C257.837 46.8903 257.984 46.6969 258.16 46.5215C258.335 46.346 258.536 46.2064 258.761 46.1025C258.99 45.9951 259.241 45.9414 259.513 45.9414ZM265.244 50.3027C265.244 50.693 265.149 51.0225 264.959 51.291C264.77 51.5596 264.492 51.7637 264.127 51.9033C263.765 52.0394 263.321 52.1074 262.795 52.1074C262.38 52.1074 262.021 52.077 261.721 52.0161C261.424 51.9588 261.142 51.8693 260.877 51.7476V50.6572C261.16 50.7897 261.477 50.9043 261.828 51.001C262.183 51.0977 262.517 51.146 262.833 51.146C263.248 51.146 263.547 51.0815 263.729 50.9526C263.912 50.8201 264.003 50.6447 264.003 50.4263C264.003 50.2974 263.966 50.1828 263.891 50.0825C263.819 49.9787 263.683 49.873 263.482 49.7656C263.285 49.6546 262.995 49.5221 262.612 49.3682C262.236 49.2178 261.919 49.0674 261.662 48.917C261.404 48.7666 261.209 48.5858 261.076 48.3745C260.944 48.1597 260.877 47.8857 260.877 47.5527C260.877 47.0264 261.085 46.6271 261.5 46.355C261.919 46.0793 262.473 45.9414 263.16 45.9414C263.525 45.9414 263.869 45.979 264.191 46.0542C264.517 46.1258 264.836 46.2314 265.147 46.3711L264.75 47.3218C264.481 47.2036 264.211 47.1069 263.939 47.0317C263.67 46.953 263.396 46.9136 263.117 46.9136C262.791 46.9136 262.542 46.9637 262.371 47.064C262.202 47.1642 262.118 47.3075 262.118 47.4937C262.118 47.6333 262.159 47.7515 262.242 47.8481C262.324 47.9448 262.465 48.0415 262.666 48.1382C262.87 48.2349 263.153 48.3548 263.515 48.498C263.869 48.6341 264.175 48.7773 264.433 48.9277C264.694 49.0745 264.895 49.2554 265.035 49.4702C265.174 49.6851 265.244 49.9626 265.244 50.3027Z" fill="black"/>
<path d="M327.897 52L327.129 49.8193H324.127L323.359 52H322L324.922 44.1152H326.351L329.267 52H327.897ZM326.796 48.7129L326.05 46.5645C326.021 46.4714 325.98 46.3407 325.926 46.1724C325.873 46.0005 325.819 45.8268 325.765 45.6514C325.711 45.4723 325.667 45.3219 325.631 45.2002C325.595 45.347 325.55 45.5117 325.497 45.6943C325.446 45.8734 325.396 46.0417 325.346 46.1992C325.3 46.3568 325.264 46.4785 325.239 46.5645L324.487 48.7129H326.796ZM332.57 52.1074C332.008 52.1074 331.521 51.9982 331.109 51.7798C330.698 51.5614 330.381 51.2266 330.159 50.7754C329.937 50.3242 329.826 49.7513 329.826 49.0566C329.826 48.3333 329.947 47.7425 330.191 47.2842C330.434 46.8258 330.771 46.4875 331.201 46.269C331.634 46.0506 332.13 45.9414 332.688 45.9414C333.043 45.9414 333.363 45.9772 333.65 46.0488C333.94 46.1169 334.185 46.201 334.386 46.3013L334.01 47.311C333.791 47.2215 333.568 47.1463 333.338 47.0854C333.109 47.0246 332.889 46.9941 332.678 46.9941C332.33 46.9941 332.04 47.0711 331.808 47.2251C331.578 47.3791 331.407 47.6082 331.292 47.9126C331.181 48.217 331.125 48.5947 331.125 49.0459C331.125 49.4827 331.183 49.8516 331.297 50.1523C331.412 50.4495 331.582 50.6751 331.808 50.8291C332.033 50.9795 332.311 51.0547 332.64 51.0547C332.966 51.0547 333.258 51.0153 333.516 50.9365C333.773 50.8577 334.017 50.7557 334.246 50.6304V51.7261C334.021 51.855 333.779 51.9499 333.521 52.0107C333.263 52.0752 332.946 52.1074 332.57 52.1074ZM338.038 52.1074C337.476 52.1074 336.989 51.9982 336.577 51.7798C336.165 51.5614 335.848 51.2266 335.626 50.7754C335.404 50.3242 335.293 49.7513 335.293 49.0566C335.293 48.3333 335.415 47.7425 335.659 47.2842C335.902 46.8258 336.239 46.4875 336.668 46.269C337.102 46.0506 337.598 45.9414 338.156 45.9414C338.511 45.9414 338.831 45.9772 339.118 46.0488C339.408 46.1169 339.653 46.201 339.854 46.3013L339.478 47.311C339.259 47.2215 339.035 47.1463 338.806 47.0854C338.577 47.0246 338.357 46.9941 338.146 46.9941C337.798 46.9941 337.508 47.0711 337.275 47.2251C337.046 47.3791 336.874 47.6082 336.76 47.9126C336.649 48.217 336.593 48.5947 336.593 49.0459C336.593 49.4827 336.651 49.8516 336.765 50.1523C336.88 50.4495 337.05 50.6751 337.275 50.8291C337.501 50.9795 337.778 51.0547 338.108 51.0547C338.434 51.0547 338.726 51.0153 338.983 50.9365C339.241 50.8577 339.485 50.7557 339.714 50.6304V51.7261C339.488 51.855 339.247 51.9499 338.989 52.0107C338.731 52.0752 338.414 52.1074 338.038 52.1074ZM346.374 49.0137C346.374 49.5078 346.31 49.9465 346.181 50.3296C346.052 50.7127 345.864 51.0368 345.617 51.3018C345.37 51.5632 345.072 51.7637 344.725 51.9033C344.378 52.0394 343.986 52.1074 343.549 52.1074C343.141 52.1074 342.766 52.0394 342.426 51.9033C342.086 51.7637 341.791 51.5632 341.54 51.3018C341.293 51.0368 341.101 50.7127 340.965 50.3296C340.829 49.9465 340.761 49.5078 340.761 49.0137C340.761 48.3584 340.874 47.8034 341.1 47.3486C341.329 46.8903 341.655 46.5412 342.077 46.3013C342.5 46.0614 343.003 45.9414 343.586 45.9414C344.134 45.9414 344.618 46.0614 345.037 46.3013C345.456 46.5412 345.783 46.8903 346.02 47.3486C346.256 47.807 346.374 48.362 346.374 49.0137ZM342.061 49.0137C342.061 49.4469 342.113 49.8175 342.217 50.1255C342.324 50.4334 342.489 50.6698 342.711 50.8345C342.933 50.9956 343.219 51.0762 343.57 51.0762C343.921 51.0762 344.208 50.9956 344.43 50.8345C344.652 50.6698 344.815 50.4334 344.918 50.1255C345.022 49.8175 345.074 49.4469 345.074 49.0137C345.074 48.5804 345.022 48.2134 344.918 47.9126C344.815 47.6082 344.652 47.3773 344.43 47.2197C344.208 47.0586 343.919 46.978 343.565 46.978C343.042 46.978 342.661 47.1535 342.421 47.5044C342.181 47.8553 342.061 48.3584 342.061 49.0137ZM353.007 46.0542V52H352.014L351.842 51.1997H351.772C351.647 51.4038 351.487 51.5739 351.294 51.71C351.101 51.8424 350.886 51.9409 350.649 52.0054C350.413 52.0734 350.164 52.1074 349.903 52.1074C349.455 52.1074 349.072 52.0322 348.753 51.8818C348.438 51.7279 348.197 51.4915 348.028 51.1729C347.86 50.8542 347.776 50.4424 347.776 49.9375V46.0542H349.043V49.7012C349.043 50.1631 349.137 50.5086 349.323 50.7378C349.513 50.967 349.806 51.0815 350.204 51.0815C350.587 51.0815 350.891 51.0028 351.117 50.8452C351.342 50.6877 351.502 50.4549 351.595 50.147C351.691 49.839 351.74 49.4613 351.74 49.0137V46.0542H353.007ZM357.917 45.9414C358.586 45.9414 359.107 46.1151 359.479 46.4624C359.855 46.8062 360.043 47.3594 360.043 48.1221V52H358.781V48.3584C358.781 47.8965 358.686 47.5509 358.497 47.3218C358.307 47.089 358.013 46.9727 357.616 46.9727C357.039 46.9727 356.638 47.1499 356.413 47.5044C356.191 47.8589 356.08 48.3727 356.08 49.0459V52H354.817V46.0542H355.8L355.978 46.8599H356.047C356.176 46.6522 356.336 46.4821 356.525 46.3496C356.719 46.2135 356.934 46.1115 357.17 46.0435C357.41 45.9754 357.659 45.9414 357.917 45.9414ZM364.023 51.0869C364.188 51.0869 364.351 51.0726 364.512 51.0439C364.673 51.0117 364.82 50.9741 364.953 50.9312V51.8872C364.813 51.9481 364.632 52 364.41 52.043C364.188 52.0859 363.957 52.1074 363.717 52.1074C363.381 52.1074 363.078 52.0519 362.81 51.9409C362.541 51.8263 362.328 51.6312 362.17 51.3555C362.013 51.0798 361.934 50.6984 361.934 50.2114V47.0156H361.123V46.4517L361.993 46.0059L362.407 44.7329H363.202V46.0542H364.904V47.0156H363.202V50.1953C363.202 50.4961 363.277 50.7199 363.427 50.8667C363.578 51.0135 363.776 51.0869 364.023 51.0869Z" fill="black"/>
</svg>
