<svg width="25" height="25" viewBox="0 0 25 25" fill="none" xmlns="http://www.w3.org/2000/svg">
<path d="M12.4999 14.5834H13.5416C14.6874 14.5834 15.6249 13.6459 15.6249 12.5V2.08337H6.24991C4.68741 2.08337 3.32284 2.94794 2.6145 4.21878" stroke="#2F2E2E" stroke-width="1.5" stroke-linecap="round" stroke-linejoin="round"/>
<path d="M2.08325 17.7084C2.08325 19.4375 3.47909 20.8334 5.20825 20.8334H6.24992C6.24992 19.6875 7.18742 18.75 8.33325 18.75C9.47909 18.75 10.4166 19.6875 10.4166 20.8334H14.5833C14.5833 19.6875 15.5208 18.75 16.6666 18.75C17.8124 18.75 18.7499 19.6875 18.7499 20.8334H19.7916C21.5208 20.8334 22.9166 19.4375 22.9166 17.7084V14.5834H19.7916C19.2187 14.5834 18.7499 14.1146 18.7499 13.5417V10.4167C18.7499 9.84379 19.2187 9.37504 19.7916 9.37504H21.1353L19.3541 6.26047C18.9791 5.61463 18.2916 5.20837 17.5416 5.20837H15.6249V12.5C15.6249 13.6459 14.6874 14.5834 13.5416 14.5834H12.4999" stroke="#2F2E2E" stroke-width="1.5" stroke-linecap="round" stroke-linejoin="round"/>
<path d="M8.33333 22.9167C9.48393 22.9167 10.4167 21.9839 10.4167 20.8333C10.4167 19.6827 9.48393 18.75 8.33333 18.75C7.18274 18.75 6.25 19.6827 6.25 20.8333C6.25 21.9839 7.18274 22.9167 8.33333 22.9167Z" stroke="#2F2E2E" stroke-width="1.5" stroke-linecap="round" stroke-linejoin="round"/>
<path d="M16.6666 22.9167C17.8172 22.9167 18.7499 21.9839 18.7499 20.8333C18.7499 19.6827 17.8172 18.75 16.6666 18.75C15.516 18.75 14.5833 19.6827 14.5833 20.8333C14.5833 21.9839 15.516 22.9167 16.6666 22.9167Z" stroke="#2F2E2E" stroke-width="1.5" stroke-linecap="round" stroke-linejoin="round"/>
<path d="M22.9167 12.5V14.5833H19.7917C19.2187 14.5833 18.75 14.1146 18.75 13.5417V10.4167C18.75 9.84375 19.2187 9.375 19.7917 9.375H21.1354L22.9167 12.5Z" stroke="#2F2E2E" stroke-width="1.5" stroke-linecap="round" stroke-linejoin="round"/>
<path d="M2.08325 8.33337H8.33325" stroke="#2F2E2E" stroke-width="1.5" stroke-linecap="round" stroke-linejoin="round"/>
<path d="M2.08325 11.4584H6.24992" stroke="#2F2E2E" stroke-width="1.5" stroke-linecap="round" stroke-linejoin="round"/>
<path d="M2.08325 14.5834H4.16659" stroke="#2F2E2E" stroke-width="1.5" stroke-linecap="round" stroke-linejoin="round"/>
</svg>
