<svg width="22" height="22" viewBox="0 0 22 22" fill="none" xmlns="http://www.w3.org/2000/svg">
<path d="M11.1466 9.96421C11.0549 9.95504 10.9449 9.95504 10.8441 9.96421C8.66243 9.89087 6.92993 8.10337 6.92993 5.90337C6.92993 3.65754 8.74493 1.83337 10.9999 1.83337C13.2458 1.83337 15.0699 3.65754 15.0699 5.90337C15.0608 8.10337 13.3283 9.89087 11.1466 9.96421Z" stroke="#292D32" stroke-width="1.5" stroke-linecap="round" stroke-linejoin="round"/>
<path d="M6.56341 13.3466C4.34507 14.8316 4.34507 17.2516 6.56341 18.7275C9.08424 20.4141 13.2184 20.4141 15.7392 18.7275C17.9576 17.2425 17.9576 14.8225 15.7392 13.3466C13.2276 11.6691 9.09341 11.6691 6.56341 13.3466Z" stroke="#292D32" stroke-width="1.5" stroke-linecap="round" stroke-linejoin="round"/>
</svg>
